<?xml version="1.0" encoding="UTF-8"?>
<svg id="Layer_1" xmlns="http://www.w3.org/2000/svg" viewBox="0 0 1080 1080">
  <defs>
    <style>
      .cls-1 {
        fill: #446755;
      }

      .cls-2 {
        fill: #18181B;
      }
    </style>
  </defs>
  <path class="cls-2" d="M649.47,719.27v100.56s-26.18,16.63-105.26,16.63c-161.84,0-174.3-118.27-174.3-118.27v-235.25h-67.35v-95.03c153.66,0,236.46-144.38,236.46-144.38v144.38h0v95.16h0v186.54c0,42,8.15,68.52,32.42,68.52s78.04-18.84,78.04-18.87Z"/>
  <path class="cls-1" d="M607.68,328.04c24.95-2.36,49.77,4.06,74.6,7.48,31.55,4.35,63.76,3.84,95.15-1.5-20.25,23.1-35.15,50.3-52.76,75.46-17.61,25.17-38.99,49.12-67.18,61.32-37.69,16.32-84.83,7.7-114.3-20.91,23.11-9.09,44.45-22.64,62.5-39.69-5.54,5.23-29.56-8.2-34.24-11.39-8.48-5.78-23.06-18.27-22.93-29.65.12-10.72,13.88-22.79,21.99-28.27,10.95-7.39,24.06-11.62,37.16-12.86Z"/>
</svg>