<?xml version="1.0" encoding="UTF-8"?>
<svg xmlns="http://www.w3.org/2000/svg" viewBox="0 0 1080 1080">
  <defs>
    <style>
      .cls-1 {
        letter-spacing: 0em;
      }

      .cls-2 {
        stroke-miterlimit: 10;
      }

      .cls-2, .cls-3, .cls-4, .cls-5 {
        fill: #e0e0e0;
      }

      .cls-2, .cls-6, .cls-4 {
        stroke: #fff;
      }

      .cls-7 {
        letter-spacing: -.01em;
      }

      .cls-8 {
        letter-spacing: 0em;
      }

      .cls-3 {
        font-size: 194.8px;
      }

      .cls-3, .cls-5 {
        font-family: Tanker-Regular, Tanker;
      }

      .cls-6 {
        fill: none;
      }

      .cls-6, .cls-4 {
        stroke-linecap: round;
        stroke-linejoin: round;
        stroke-width: 3px;
      }

      .cls-9 {
        letter-spacing: -.02em;
      }

      .cls-10 {
        letter-spacing: 0em;
      }

      .cls-11 {
        letter-spacing: 0em;
      }

      .cls-5 {
        font-size: 127.31px;
      }

      .cls-12 {
        letter-spacing: -.02em;
      }

      .cls-13 {
        letter-spacing: 0em;
      }
    </style>
  </defs>
  <g id="Layer_5">
    <path class="cls-2" d="M500.66,601.44c-4.01-6.09-7.93-11.61-9.1-12.36-1.17-.75-15.34-5.91-15.34-5.91,0,0-48.26-16.06-59.07-18.85-10.81-2.79-39.96-12.93-46.01-15.74-6.05-2.81-22.48-9.8-30.71-24.1,0,0-7.41-12.66-11.82-24.15,0,0-13.41-32.98-14.07-34.71-.66-1.73-9.8-28.16-13.1-32.05,0,0-9.17-15.93-16.74-20.64,0,0-13.14-11.37-30.65-13.05-17.52-1.67-28.09,1.92-31.8,3.38-3.71,1.47-11.97,5.05-16.78,9.11s-9.05,7.98-11.59,11.55c-2.53,3.58-7.23,10.23-9.67,18.57-2.44,8.34-3.27,19.23-2.82,27.54s3.92,28.39,3.92,28.39l3.9,24.07,3.35,20.65,3.65,22.44,3.33,20.46,2.07,12.68s-38.97,47.83-46.71,50.55l-39.92-62.89s-18.31,12.86-22.27,18.84c-3.96,5.98-3.34,14.71-3.34,14.71,0,0,.81,11.27,7.06,19.94,0,0-4.56,19.46-.67,37.23s11.69,25.09,27.26,32.67c15.57,7.58,31.44,3.55,36.01,1.83,0,0,31.42,26.16,63.27,12.68,0,0,6.23,43.45,13.35,56.59s17.3,30.23,33.76,41.13c0,0,20.51,13.26,33.46,14.63,0,0,3.49,51.87,2.64,69.03-.85,17.15-2.93,46.7-4.53,58.63-1.6,11.92-6.84,44.11-7.32,45.23,0,0-8.44-10.42-17.22-13.75s-15.29-5.45-21.34-5.29c-6.05.16-10.77.11-20.49,3.75,0,0-10.75,5.07-17.07,12.35-6.31,7.28-10.29,15.59-11.45,20.35-1.16,4.76-2.31,11.66-1.95,16.01,0,0,20.71,8.21,37.06,9.02,16.35.81,21.73,1.25,30.67,0,8.94-1.25,22.71-3.94,29.63-6.53,6.92-2.6,15.23-6.35,15.23-6.35l2.26-200.14s17.81.14,28.22-3.15l-.84,21.74-.61,19.51-.83,34.43-.5,26.5-.75,34.61-.91,34.11-1.12,30.18s14.81,5.46,24.37,7.17c9.56,1.71,19.44,3.62,30.25,3.34,10.81-.28,24.61-.72,36.46-4.19l11.85-3.46s.19-10.48-3.42-17.77c-3.6-7.29-6.45-12.16-10.97-16.77,0,0-5.28-4.88-8.06-6.48s-6.51-3.5-9.87-4.16-8.33-1.56-13.03-1.13c-4.7.43-12.56,1.44-20.06,4.68,0,0-5.68,2.68-9.52,5.57l-4.7-29.91-3.83-31.27-2.77-31.84-1.77-35.75-.28-41.92s13.65-5.15,21.24-10.86,15.44-11.77,20.9-19.18c5.46-7.42,12-16.39,15.19-26.19,3.19-9.8,6.22-18.66,6.29-29.04.07-10.38-.97-23.1-2.5-29.36,0,0,14.97-7.6,21.39-19.55,0,0,11.34-1.84,16.29-4.34s17.12-6.49,22.25-30.51c0,0,12.53-4.18,17.69-10.78,5.16-6.6,9.16-11.1,11.04-22.03,1.88-10.93-1.43-23.59-5.43-29.68ZM401.21,654.7c-1.54,4.6-3.07,9.2-4.61,13.8.24-.71-1.53-3.57-1.85-4.31-.64-1.49-1.28-2.97-1.92-4.46-1.28-2.97-2.55-5.94-3.83-8.91-.92-2.13-2.21-4.75,1.36-3.79,3.01.81,5.99,2.39,8.88,3.55.86.35,1.81.77,2.17,1.62.34.79.07,1.69-.2,2.5Z"/>
  </g>
  <g id="Layer_4">
    <path class="cls-6" d="M182.31,479.96c-1.04-9.13-1.1-12.38-1.1-17.86,0-35.75,28.12-62.77,63.87-62.77,29.46,0,50.43,16.7,62.17,46.62"/>
    <path class="cls-6" d="M417.5,719.53c1.69,7.17,2.59,14.65,2.59,22.34,0,53.53-43.39,96.92-96.92,96.92s-89.85-39.26-96.67-89.88"/>
    <path class="cls-6" d="M222.3,724.29c1.7,10.13,3.14,18.55,4.2,24.62"/>
    <path class="cls-6" d="M182.31,479.96s9.14,56.53,19.29,118.76"/>
    <path class="cls-6" d="M386.39,645.33c8.29,20.3,4.53,10.1,10.41,23.98"/>
    <path class="cls-6" d="M463.4,665.73c3.16.12,17.04.31,29.03-10.1,11.1-9.63,13.26-21.98,13.8-25.35,3.15-19.75-8.91-34.29-11.26-36.99-.75-.86-1.97-4.09-5.63-5.42-54.01-19.65-71.93-22.63-97.52-31.47-23.81-8.22-35.23-13.65-45.06-23.74-8.45-8.68-14.2-22.47-25.34-49.71-6.23-15.22-10.97-28.03-14.17-37"/>
    <path class="cls-6" d="M438.81,698.79s-21.88,38.87-71.5,20.35c0,0,25.58-31.32,35.75-67.51"/>
    <path class="cls-6" d="M477.35,663.93c-4.9,20.68-12.89,34.82-54.08,36.07"/>
    <path class="cls-6" d="M403.06,651.63s-29.83-8.12-40.74-26.6"/>
    <path class="cls-6" d="M201.61,598.72s-36.37,45.59-49.96,52.63"/>
    <path class="cls-6" d="M154.9,649.27s-26.82-33.26-39.92-62.89c0,0-20.9,14.35-23.96,21.57s-3.21,26.43,11.63,37.76"/>
    <path class="cls-4" d="M130.72,576.73l-14.09,14.71c1.06,4.57,1.38,8.81,1.86,13.3l18.29-22.69-6.05-5.32Z"/>
    <path class="cls-4" d="M168.98,539.31c-11.07-9.73-27.93-8.65-37.66,2.42-9.73,11.07-8.65,27.93,2.42,37.66,11.07,9.73,27.93,8.65,37.66-2.42,9.73-11.07,8.65-27.93-2.42-37.66ZM137.48,575.14c-8.72-7.66-9.57-20.95-1.91-29.67s20.95-9.57,29.67-1.91,9.57,20.95,1.91,29.67-20.95,9.57-29.67,1.91Z"/>
    <path class="cls-6" d="M96.43,639.88c-1.03.58-8.78,42.37,11.44,60.39,17.05,15.19,46.15,19.93,60.74,4.93,4.12-4.24,5.94-6.84,7.01-9.54"/>
    <path class="cls-6" d="M159.03,711.61s38.18,30.99,71.33,8.19"/>
    <path class="cls-6" d="M91.01,607.95s.07,11.54,12.55,20.43c0,0,22.36-9.56,12.02-40.65"/>
    <path class="cls-6" d="M241.94,494.52s-31.47,11.09-23.16,38.15c0,0,12.08.37,29.45-6.93l-26.68,6.84s5.07,18.78,29.45,10.28"/>
    <path class="cls-6" d="M254.47,481.86c1.49.32,6.98,1.31,12.68-1.79,4.62-2.51,6.82-6.32,7.58-7.82"/>
    <path class="cls-6" d="M198.08,494.84c1.07.85,4.96,3.72,10.59,3.57,6.84-.18,11.03-4.69,11.75-5.49"/>
    <path class="cls-6" d="M251.01,456.94c-.15-3.33,1.77-6.66,4.72-8.21s6.78-1.24,9.44.76"/>
    <path class="cls-6" d="M196.81,479.56c2.86-.29,11.1-.57,13.96-.86"/>
    <path class="cls-6" d="M303.11,838.2c5.22,57.46,1.88,114.76-9.45,171.33"/>
    <path class="cls-6" d="M318.98,838.93l-2.26,200.14"/>
    <path class="cls-6" d="M316.72,1039.07c-34.47,17.12-76.76,17.94-112.58,3.86"/>
    <path class="cls-6" d="M204.14,1042.94c-1.1-21.1,12.71-42.14,32.51-49.53,19.8-7.39,44.01-.54,57.01,16.12"/>
    <path class="cls-6" d="M347.19,835.79c-2.92,66.96-2.64,134.11-5.56,201.07"/>
    <path class="cls-6" d="M341.64,1036.86c33.15,12.61,69.34,14.27,102.93,2.86"/>
    <path class="cls-6" d="M444.56,1039.72c.05-16.74-9.1-33.04-23.46-41.64-14.36-8.6-38.27-4.71-51.47,5.59"/>
    <path class="cls-6" d="M356.3,832.97c-.48,28.82.37,60.51,3.37,94.57,2.4,27.23,5.88,52.67,9.96,76.12"/>
  </g>
  <g id="Layer_3">
    <text class="cls-3" transform="translate(510.42 263.27)"><tspan x="0" y="0">404</tspan></text>
    <text class="cls-5" transform="translate(289.11 397.94)"><tspan class="cls-12" x="0" y="0">P</tspan><tspan class="cls-1" x="54.36" y="0">a</tspan><tspan class="cls-13" x="110.76" y="0">g</tspan><tspan x="168.43" y="0">e </tspan><tspan class="cls-11" x="239.46" y="0">N</tspan><tspan class="cls-7" x="302.99" y="0">o</tspan><tspan class="cls-10" x="358.62" y="0">t </tspan><tspan class="cls-9" x="427.49" y="0">F</tspan><tspan class="cls-10" x="475.1" y="0">o</tspan><tspan class="cls-8" x="532.64" y="0">un</tspan><tspan x="655.11" y="0">d</tspan></text>
  </g>
</svg>