<?xml version="1.0" encoding="UTF-8"?>
<svg xmlns="http://www.w3.org/2000/svg" viewBox="0 0 1080 1080">
  <defs>
    <style>
      .cls-1 {
        fill: #b372b0;
      }

      .cls-2 {
        fill: #fff;
      }

      .cls-2, .cls-3, .cls-4, .cls-5, .cls-6, .cls-7, .cls-8, .cls-9, .cls-10 {
        stroke: #fff;
        stroke-linecap: round;
        stroke-linejoin: round;
      }

      .cls-2, .cls-3, .cls-4, .cls-5, .cls-8, .cls-10 {
        stroke-width: 4px;
      }

      .cls-3, .cls-6, .cls-9 {
        fill: none;
      }

      .cls-4 {
        fill: #446755;
      }

      .cls-5 {
        fill: #a4b28b;
      }

      .cls-11, .cls-10 {
        fill: #f57f20;
      }

      .cls-12 {
        fill: #ef4848;
      }

      .cls-6, .cls-7 {
        stroke-width: 4.67px;
      }

      .cls-7 {
        fill: #629fa3;
      }

      .cls-13 {
        fill: #a53332;
      }

      .cls-8 {
        fill: #b3d334;
      }

      .cls-14 {
        fill: #7a826b;
      }

      .cls-15 {
        fill: #2d998c;
      }

      .cls-9 {
        stroke-width: 4.48px;
      }

      .cls-16 {
        fill: #3c5f61;
      }

      .cls-17 {
        fill: #744780;
      }
    </style>
  </defs>
  <g id="leaves">
    <path class="cls-13" d="M241.71,947.96c7.74,8.12,11.77,19.65,10.79,30.82-1.32,14.92-10.81,27.74-15.56,41.95-6.92,20.71-2.23,44.76,14.16,59.19l-120.65.17-43.8-169.93,25.55-18.47,34.87,47.92,94.65,8.36Z"/>
    <path class="cls-3" d="M130.88,1077.24l-43.8-169.93,25.55-18.47,34.87,47.92,94.65,8.36c7.74,8.12,11.77,19.65,10.79,30.82-1.32,14.92-10.81,27.74-15.56,41.95-6.92,20.71-2.38,45.78,14.01,60.21"/>
    <path class="cls-17" d="M141.98,1080H0s0-55.34,0-55.34l111.1-53.44,13.12,10.06c10.73,12.96,16.26,29.6,18.42,46.29s.32,35.64-.66,52.44"/>
    <path class="cls-15" d="M377.88,1079.72c6.64-65.32-25.7-133.12-80.64-169.08-34.17-22.36-74.65-32.41-112.8-46.97-38.15-14.56-76.58-35.92-95.87-71.91,14.88,50.54,46.27,96.07,88.21,127.96,29.56,22.48,64.01,38.25,92.06,62.59,28.05,24.34,49.7,61.46,41.15,97.61l67.89-.19Z"/>
    <path class="cls-3" d="M310.4,1078.09c8.54-36.14-13.51-71.44-41.56-95.78-28.05-24.34-62.49-40.11-92.06-62.59-41.94-31.89-73.33-77.42-88.21-127.96,19.29,35.99,57.72,57.35,95.87,71.91,38.15,14.56,78.64,24.61,112.8,46.97,54.94,35.95,87.43,102.1,80.8,167.43"/>
    <path class="cls-3" d="M111.1,971.22l13.12,10.06c10.73,12.96,16.26,29.6,18.42,46.29s.44,33.68-.54,50.48"/>
    <path class="cls-12" d="M165.35,942.17c37.64,4.88,79.62,6.67,116.18-3.5,36.56-10.17,70.84-35.02,83.65-70.75-28.17,1.6-56.91-.9-83.35-10.75-10.72-3.99-20.97-9.15-31.61-13.34-17.67-6.95-36.4-11.17-55.34-12.47-18.55-1.28-37.9.41-54.23,9.3s-29.01,26.12-28.44,44.7l53.14,56.81Z"/>
    <path class="cls-1" d="M0,1024.66c35.23-4.64,73.94-14.95,104.75-32.67,30.81-17.72,57.59-43.05,74.73-74.18,4.86-8.83,9.02-18.45,8.98-28.53-33.27-4.6-67.04-5.53-100.51-2.77-30.81,2.54-62.37,8.61-87.96,25.97v112.18Z"/>
    <g>
      <path class="cls-1" d="M943.36,1071.59c-11.16-25.84-2.7-46.19,9.89-71.36,12.59-25.17,32.27-45.99,51.99-66.09,19.71-20.1,39.98-40.17,54.16-64.49,14.18-24.31,21.78-53.89,14.02-80.95-7.76-27.06-33.74-49.71-61.81-47.59l.45,3c17.57,14.59,16.47,42.55,6.84,63.26-15.87,34.12-48.56,57.09-81.41,75.43-32.85,18.35-67.96,34.2-94.75,60.61s-54.66,83.48-12.7,128.16"/>
      <path class="cls-6" d="M942.73,1069.29c-6.81-23.54-.69-46.65,10.52-69.06,12.59-25.17,32.27-45.99,51.99-66.09,19.71-20.1,39.98-40.17,54.16-64.49,14.18-24.31,21.78-53.89,14.02-80.95-7.76-27.06-33.74-49.71-61.81-47.59h0c17.57,14.59,16.92,45.55,7.29,66.26-15.87,34.12-48.56,57.09-81.41,75.43-32.85,18.35-67.96,34.2-94.75,60.61s-43.81,67.14-30.15,102.2"/>
      <path class="cls-6" d="M829.24,1069.96c-8.8-7.04-12.87-14.1-16.85-24.64"/>
    </g>
    <path class="cls-3" d="M2.05,1024.66c35.23-4.64,71.9-14.95,102.7-32.67,30.81-17.72,57.59-43.05,74.73-74.18,4.86-8.83,9.02-18.45,8.98-28.53-33.27-4.6-67.04-5.53-100.51-2.77-30.81,2.54-60.43,7.86-86.01,25.21"/>
    <g>
      <path class="cls-12" d="M813.26,1079.1c-37.26-1.22-68.17-32.66-77.98-68.62-5.54-20.3-3.63-41.88.1-62.59,3.73-20.71,9.24-41.16,10.84-62.14,3.33-43.68-11.26-88.46-39.67-121.8,20.48,0,40.89,7.14,56.92,19.88,16.03,12.74,27.58,31.01,32.22,50.96,10.81,46.56-15.43,96.58-1.5,142.31,11.07,36.35,55.45,61.49,93.33,58.56v43.45h-74.26Z"/>
      <path class="cls-9" d="M810.13,1077.6c-37.26-1.22-65.04-31.15-74.85-67.11-5.54-20.3-3.63-41.88.1-62.59,3.73-20.71,9.24-41.16,10.84-62.14,3.33-43.68-11.26-88.46-39.67-121.8,20.48,0,40.89,7.14,56.92,19.88,16.03,12.74,27.58,31.01,32.22,50.96,10.81,46.56-15.43,96.58-1.5,142.31,11.07,36.35,55.45,61.49,93.33,58.56"/>
    </g>
    <path class="cls-3" d="M112.21,885.36c-.56-18.58,12.11-35.82,28.44-44.7s35.68-10.58,54.23-9.3c18.94,1.31,37.67,5.53,55.34,12.47,10.65,4.18,20.89,9.34,31.61,13.34,26.44,9.85,55.18,12.35,83.35,10.75-12.8,35.73-47.08,60.57-83.65,70.75-36.56,10.17-78.55,8.38-116.18,3.5"/>
    <path class="cls-3" d="M1.94,969.45c15.49-19.79,34.1-30.81,59.01-34.2"/>
    <path class="cls-3" d="M209.97,883.01c-42.18-11.45-55.13-10.07-97.79-2.11"/>
    <g>
      <g>
        <path class="cls-6" d="M814.35,911.4c-7.02,8.06-6.79,19.78-2.59,29.32,4.2,9.54,11.75,17.48,18.77,25.54,7.02,8.06,13.81,16.76,16.02,26.83,3.11,14.12-3.19,28.34-7.18,42.27-3.99,13.94-8.81,29.08,2.38,39.29"/>
        <g>
          <path class="cls-16" d="M780.88,1079.92c-10.31-72.96,4.49-148.84,41.36-214.34h62.57s53.73,16.39,53.73,16.39l5.55,34.76c-7.02,8.06-6.79,19.78-2.59,29.32s11.75,17.48,18.77,25.54c7.02,8.06,13.81,16.76,16.02,26.83,3.11,14.12-3.19,28.34-7.18,42.27s-8.81,29.08,2.38,39.29l-190.62-.08Z"/>
          <path class="cls-7" d="M973.51,867.36c-13.7-26.29-44.83-44.3-76.88-44.47-32.04-.17-63.4,17.51-77.44,43.66,25.94.11,52.97.45,76.1,11.1,19.29,8.89,33.94,24.1,50.73,36.49,37.04,27.33,86.04,40.89,133.57,36.97l-.42-.33c-15.64-7.81-25.96-22.35-32.25-37.52-6.29-15.17-9.15-31.29-13.79-46.94-4.65-15.64-11.43-31.32-23.96-42.86-5.64-5.19-12.37-9.44-19.81-12.22-22.29-8.32-50.28-1.5-64.98,15.84"/>
          <path class="cls-6" d="M822.25,863.36c-36.87,65.49-51.39,141.18-41.08,214.14"/>
        </g>
      </g>
      <path class="cls-6" d="M877.66,1078.37c-8.88-6.19-9.98-19.46-5.81-29.45,4.17-9.99,12.26-17.7,19.41-25.83,7.15-8.13,13.8-17.72,13.97-28.54.26-16.51-14.11-29.08-21.19-43.99-11.22-23.6-1.35-55.06,21.34-68.02"/>
    </g>
  </g>
  <g id="Layer_1">
    <path class="cls-14" d="M749.23,180.91c-4.57,13.01-10.43,25.52-16.29,38-3.49,7.45-6.99,14.9-10.48,22.35-3.82,8.14-7.64,16.3-12.12,24.1-2.81,4.9-5.87,9.66-8.93,14.41-.59.92-1.21,1.9-1.27,3-.15,2.89,3.23,4.41,5.84,5.66,6.65,3.18,11.34,9.25,16.25,14.75,25.48,28.59,63.14,45.95,101.42,46.77,7.25.15,14.77-.32,21.2-3.68,4.82-2.52,8.72-6.53,11.93-10.92,2.85-3.9,5.25-8.23,6.32-12.95,3.07-13.53-5.05-26.82-12.8-38.33-7.61-11.29-15.22-22.59-22.82-33.88-1.68-2.49-3.38-5.04-4.19-7.93-.96-3.44-.58-7.09-.19-10.64.67-6.11,1.34-12.21,2.01-18.32.5-4.59,1-9.26.15-13.8-1.07-5.67-5.48-10.09-7.34-15.55-7.77-22.82-22.64-35.8-41.51-43.25-3.62-1.43-9.71-6.63-13.72-6.58s-1.65-1.08-3.38,2.09c-1.18,2.16-.82,6.87-1.2,9.37-1.86,12.02-4.86,23.86-8.89,35.33Z"/>
    <path class="cls-5" d="M859.49,248.25c-28.4,20.34-13.44,54.76-50.19,79.81l15.45,3.4c-14.45-2.71-31.37-6.89-45.87-12.01l-28.68-10.42c-57.46-25.7-114.71-66.21-165.26-95.6-5.42-3.15-11.35-6.49-17.56-5.66-9.08,1.22-14.53,10.56-17.86,19.09-12.16,31.12-14.4,67.38.34,97.36,9.7,19.72,27.7,35.7,48.25,42.67l-2.72-.98c-.57,7.37.05,15.5,1.82,23.3l.13.52c-10.38,16.04-11.88,40-12.12,59.11-.25,19.81-.2,32.94,4.01,52.3,2.87,13.23,8.19,30.28,13.05,42.91,7.93,21.43,22.69,42.84,42.84,54.15,35.68,20.76,79.84,23.13,120,16.43,20.57-3.53,39.56-12.78,56.34-25.01,13.79-12.85,25.47-28.34,34.46-45.7,26.51-51.16,23.06-111.44,49.91-162.43,24.28-42.48,67.85-72.87,116.36-79.17,5.01-1.56,10.06-3.14,14.6-5.76,4.54-2.63,8.58-6.43,10.51-11.31,1.93-4.88,3.42-11.23-.11-15.1l-37.45,11.41c15.27-3.58,30.25-8.36,44.77-14.28-1.39-13.04-10.09-26.62-21.48-33.12-11.67-6.66-26.02-7.27-39.17-4.49-13.15,2.79-25.39,8.7-37.48,14.56,0,0,.78-10.92-9.12-22.83"/>
    <path class="cls-11" d="M993.7,308.94c9.22-3.11,18.75-5.34,28.49-6.61,5.01-1.56,10.06-3.14,14.6-5.76,4.54-2.63,8.58-6.43,10.51-11.31,1.93-4.88,3.42-11.23-.11-15.1l-37.45,11.41c15.27-3.58,30.25-8.36,44.77-14.28-1.39-13.04-10.09-26.62-21.48-33.12-11.67-6.66-26.02-7.27-39.17-4.49-13.15,2.79-25.39,8.7-37.48,14.56,0,0,3.81,45.43,37.34,64.69Z"/>
    <path class="cls-3" d="M993.7,308.94c9.22-3.11,18.75-5.34,28.49-6.61,5.01-1.56,10.06-3.14,14.6-5.76,4.54-2.63,8.58-6.43,10.51-11.31,1.93-4.88,3.42-11.23-.11-15.1l-37.45,11.41c15.27-3.58,30.25-8.36,44.77-14.28-1.39-13.04-10.09-26.62-21.48-33.12-11.67-6.66-26.02-7.27-39.17-4.49-13.15,2.79-25.39,8.7-37.48,14.56"/>
    <path class="cls-3" d="M598.11,366.9c10.69,3.63,22.08,4.82,33.34,2.83"/>
    <path class="cls-10" d="M862.79,249.66c-9.9-15.92-8.75-37.95,2.75-52.75,11.5-14.8,34.93-23.56,52.88-18.17,8.45,2.54,42.46,25.79,31.09,39.35-5.84,6.97-18.06,9.89-26.32,13.48-9.23,4.02-18.69,7.51-28.32,10.46-3.17.97-30.68,9.89-32.09,7.63Z"/>
    <path class="cls-2" d="M921.26,241.1c8.42,1.47,17.32.03,24.84-4.03"/>
    <path class="cls-3" d="M700.6,281.02c31.06-45.35,49.81-94.05,57.94-148.42,5.52.06,10.75,2.35,15.65,4.9,22.24,11.62,41.53,30.56,49.2,54.46s1.81,52.73-17.55,68.69"/>
    <path class="cls-3" d="M820.64,241.16c9.26,6.05,17.63,19.19,18.67,30.19.38,4.01.09,8.1-1.02,11.97"/>
    <path class="cls-3" d="M630.6,435.83c5.2,2.54,10.69,4.52,16.29,5.89,16.34,4,33.63,3.15,49.97-.86"/>
    <path class="cls-5" d="M622.52,583.1c-8.82,11.54-17.02,20.79-27.09,31.26l-4.99,7.74,2.01,11.47,11.92,3.86,10.19-20.58c7.44-8.16,13.55-15.06,20.79-23.4"/>
    <path class="cls-5" d="M661.62,607.45c-2.48,5.31-4.44,8.89-6.92,14.2l-5.69,10.24,10.74,4.87,6.42-15.11,3.79-11.29"/>
    <path class="cls-3" d="M597.21,389.22c1.59,7.01,4.11,13.74,7.53,19.43,7.24,12.01,14.51,18.94,25.85,27.19"/>
    <path class="cls-10" d="M935.66,343.68c2.63-2.29,5.18-4.67,7.65-7.13l-.4.38c-22.47-28.93-37.11-60.32-51.38-93.86l-.23.09-7.73,3.17.52-.19c12.76,34.07,29.92,66.5,50.92,96.22"/>
  </g>
  <g id="Layer_2">
    <path class="cls-2" d="M563.6,363.88c.76-7.57,3.29-14.29,7.21-20.8"/>
    <path class="cls-11" d="M595.87,309.94c-2.13-.23-4.26-.98-5.77-2.5-1.22-1.23-1.98-2.89-3.35-3.94-1.86-1.44-4.41-1.46-6.76-1.42-1.13.02-2.28.04-3.35.4s-2.07,1.1-2.46,2.16c-.52,1.45.17,3.2-.61,4.52-.92,1.55-3.13,1.48-4.93,1.49-2.15.02-4.29.46-6.28,1.29-1.51.63-2.95,1.5-3.99,2.77s-1.61,2.97-1.27,4.57c.36,1.72,1.72,3.1,3.27,3.94s3.29,1.23,5,1.66c.58.15,1.22.34,1.53.85.15.25.2.55.23.84.12,1.27-.2,2.58-.9,3.65-.65,1.01-1.62,1.82-2.05,2.94-.56,1.47-.05,3.12.6,4.56.5,1.12,1.11,2.21,2,3.05,2.44,2.29,6.22,2.05,9.55,1.73.64-.06,1.32-.11,1.9.17.63.3,1.03.95,1.27,1.61.76,2.08.36,4.71,1.96,6.24.57.54,1.32.86,2.07,1.09,2.33.7,4.93.66,7.12-.39s3.92-3.15,4.26-5.56c.06-.41.11-.88.46-1.1.23-.14.52-.13.79-.11,1.98.15,3.94.46,5.87.92.95.23,1.92.49,2.89.45s2-.42,2.54-1.24c.38-.57.48-1.28.56-1.96.59-4.52,1.12-9.36-.91-13.44-.53-1.06-1.24-2.19-.93-3.33.25-.93,1.11-1.54,1.74-2.28,1.78-2.12,1.5-5.41.07-7.79-1.27-2.12-3.34-3.89-5.36-5.27-1.91-1.3-4.51-.33-6.76-.57Z"/>
    <path class="cls-8" d="M593.67,332.47c6.21-2.01,3.01-16.57-4.72-15.28-8.42,1.41-.31,16.91,4.72,15.28Z"/>
    <path class="cls-3" d="M584.48,321.62c-4.57.36-8.81,2.45-12.74,4.81-1.87,1.12-3.74,2.34-5.14,4.02s-2.3,3.89-1.96,6.05c.58,3.67,4.45,5.95,8.13,6.47,1.02.15,2.08.19,3.08-.08.79-.22,1.52-.63,2.22-1.06,4.33-2.64,8.16-6.07,11.26-10.08"/>
    <path class="cls-3" d="M586.67,317.32c-4.97-3.89-11.11-6.17-17.38-6.85-2.92-.32-6.09-.24-8.49,1.44-1.77,1.24-2.94,3.3-3.1,5.46s.71,4.37,2.29,5.84c1.5,1.4,3.51,2.11,5.51,2.59,1.66.4,3.35.68,5.06.82"/>
    <path class="cls-3" d="M582.07,339.06c-.87,1.64-1.91,4-2.21,5.82s.05,3.87,1.38,5.16c1.34,1.31,3.04,2.4,4.92,2.69s4.19.13,5.92-.85c1.16-.66,1.97-1.33,2.69-2.47,3.17-5.05,3.94-12.88,1.61-18.37"/>
    <path class="cls-3" d="M575.03,311.4c-.48-1.1-.85-2.25-1.12-3.42-.3-1.28-.43-2.74.33-3.82.43-.61,1.11-1.01,1.8-1.31,4.24-1.86,9.46-.36,12.72,2.92s4.74,8.02,4.86,12.64"/>
    <path class="cls-3" d="M597.36,342.31c.03,1.76,1.78,2.9,3.43,3.5s3.57.27,5.05-.68,2.54-2.48,3.14-4.14c1.38-3.8.37-8.23-2.12-11.42s-6.27-5.19-10.23-6.04"/>
    <path class="cls-3" d="M593.24,310.98c1.76-1.36,4.27-1.53,6.52-1.14,2.7.46,5.27,1.67,7.12,3.55s2.92,4.45,2.72,6.99-1.76,4.99-4.16,6.23"/>
    <path class="cls-4" d="M452.02,922.12c-8.08,39.02-19.77,112.89-27.85,151.91-33.99,4.9-65.21,4.08-99.31,0,6.37-16.27,19.57-29.75,35.72-36.44,16.14-6.7,35.01-6.53,51.02.46,9.78-39.97,19.35-80.47,25.97-120.45"/>
    <path class="cls-4" d="M526.79,924.02c4.49,37.77,8.36,76.89,12.85,114.66,12-10.08,31.69-14.85,46.3-9.2,14.61,5.65,30.19,33.38,32.29,48.9-35.68,1.59-75.9-1.59-111.59,0,7.1-47.01,8.82-103.78,5.1-151.18"/>
    <path class="cls-4" d="M236.32,487.36c-16.46,9.29-38.62,4.94-52.29-8.1-13.68-13.04-19.23-33.2-17-51.96,2.22-18.76,9.8-34.9,19.27-51.25s40.2-58.49,46.38-36.14c16.88,59.36,48.85,113.46,91.86,157.7,43.02,44.25,97.14,77.61,156,96.15l.36-1.86c8.9-17.56,14.09-36.99,15.13-56.64l7.07-1.77c-16.43,1.02-33.1-1.99-48.13-8.71-3.67-1.64-7.35-3.58-9.9-6.7-2.11-2.58-3.53-5.57-2.9-8.55l28.37.67c-6.32.57-14.35.73-23.52-.48-8.08-1.07-14.98-2.92-20.49-4.81,4.06-16.08,10.93-33.01,25.36-41.19,7.96-4.52,17.44-5.81,26.58-5.24,9.14.57,18.07,2.89,26.93,5.2l-21.41-6.13c-1.25-27.9,9.5-56.71,30.67-74.93,21.17-18.22,52.83-24.39,78.32-12.98s42.26,41.05,36.48,68.37c-15.56,58.28-29.45,116.77-45.01,175.05,45.92,6.53,92.31,13.08,138.52,9.06,46.2-4.02,88.68-21.78,126.14-51.95,44.61-38.81,29.1,52.24,17.76,78.15-11.34,25.91-41.76,43.3-69.96,41.12v-9.43c1.26,5.42-4.57,44.25-43.07,63.32-40.6,20.11-76.52-2.17-82.07-8.06l10,8.37c-13.26,18.26-37.76,27.57-59.8,22.74-22.04-4.83-40.39-23.54-44.8-45.68l15.4,29.44c4.79,31.25,2.66,70.39-3.93,101.31-6.59,30.93-26.4,60.92-56.38,70.96-18.12,6.07-40.03,6.99-58.92,4.1-32.9-5.04-65.39-17.52-86.54-43.22-18.69-22.71-23.42-54.4-19.25-83.52,4.17-29.12,15.87-55.53,27.84-82.4l17.66-.7c-32.13,2.77-65.7-2.52-92.96-19.75s-47.19-47.48-47.36-79.73l15.85,2.67c-28.63-5.07-54.93-22.15-71.19-46.25s-22.27-54.88-16.27-83.32"/>
    <path class="cls-3" d="M535.53,440.11c4.76,4.64,11.22,7.5,17.86,7.89s13.39-1.69,18.66-5.74"/>
    <path class="cls-3" d="M487.23,430.11c1.53,3.3,4.78,5.46,8.09,6.96,6.79,3.08,14.11,3.04,20.83-.07"/>
    <path class="cls-11" d="M502.65,533.06c2.82-12.26,4.8-24.64,5.52-37.2.62-10.91.31-22.27-3.23-32.62-8.86-2.31-17.79-4.63-26.93-5.2-9.14-.57-18.61.72-26.58,5.24-14.43,8.18-21.3,25.11-25.36,41.19,5.51,1.88,12.41,3.74,20.49,4.81,9.17,1.21,17.2,1.05,23.52.48l-28.37-.67c-.63,2.98.79,5.97,2.9,8.55,2.54,3.11,6.23,5.06,9.9,6.7,15.03,6.72,31.7,9.73,48.13,8.71Z"/>
    <path class="cls-3" d="M505.12,463.77c-.06-.17-.12-.35-.17-.52-8.86-2.31-17.79-4.63-26.93-5.2-9.14-.57-18.61.72-26.58,5.24-14.43,8.18-21.3,25.11-25.36,41.19,5.51,1.88,12.41,3.74,20.49,4.81,9.17,1.21,17.2,1.05,23.52.48l-28.37-.67c-.63,2.98.79,5.97,2.9,8.55,2.54,3.11,6.23,5.06,9.9,6.7,15.03,6.72,31.7,9.73,48.13,8.71"/>
  </g>
</svg>